<svg width="50" height="50" viewBox="0 0 50 50" fill="none" xmlns="http://www.w3.org/2000/svg">
<g clip-path="url(#clip0_3:8)">
<path d="M1.62092 2.52709C1.38719 2.52401 1.15562 2.5722 0.942511 2.66824C0.7294 2.76428 0.539921 2.90585 0.387404 3.083C0.234887 3.26014 0.123036 3.46855 0.0597206 3.69356C-0.00359501 3.91858 -0.0168378 4.15473 0.0209239 4.38542L6.81884 45.6563C6.99384 46.6979 7.89176 47.4646 8.94801 47.475H41.5626C41.9466 47.4791 42.3195 47.3457 42.6137 47.0989C42.9079 46.8521 43.1041 46.5081 43.1668 46.1292L49.9793 4.4C50.0167 4.16947 50.0032 3.93355 49.9397 3.70879C49.8762 3.48403 49.7643 3.2759 49.6119 3.099C49.4594 2.92209 49.27 2.78072 49.0571 2.6848C48.8441 2.58888 48.6128 2.54073 48.3793 2.54375L1.62092 2.52709ZM30.2501 32.3542H19.8376L17.0209 17.6375H32.773L30.2501 32.3542Z" fill="#0052CC"/>
</g>
<defs>
<clipPath id="clip0_3:8">
<rect width="50" height="50" fill="white"/>
</clipPath>
</defs>
</svg>
