<svg width="50" height="50" viewBox="0 0 50 50" fill="none" xmlns="http://www.w3.org/2000/svg">
<g clip-path="url(#clip0_3:4)">
<path d="M49.0542 22.7711L27.2229 0.941943C25.9646 -0.314307 23.9271 -0.314307 22.6646 0.941943L18.1417 5.47319L23.8917 11.2232C25.2354 10.7753 26.7646 11.0774 27.8271 12.1419C28.9021 13.2149 29.1979 14.7628 28.7396 16.1003L34.2771 21.6419C35.6208 21.1774 37.1667 21.4794 38.2354 22.5482C39.7375 24.0482 39.7375 26.4732 38.2354 27.9732C36.7375 29.4711 34.3167 29.4711 32.8187 27.9732C31.6958 26.8461 31.4146 25.1878 31.9771 23.8149L26.7917 18.6565V32.2503C27.1583 32.4294 27.5042 32.6732 27.8083 32.9753C29.2937 34.4774 29.2937 36.8982 27.8083 38.3919C26.3104 39.894 23.8729 39.894 22.3729 38.3919C20.875 36.894 20.875 34.4774 22.3729 32.9794C22.7521 32.6044 23.1792 32.3211 23.6333 32.1336V18.4065C23.1812 18.2169 22.75 17.944 22.3833 17.5711C21.2479 16.4357 20.975 14.7753 21.5583 13.3857L15.9083 7.70861L0.9375 22.669C-0.3125 23.9294 -0.3125 25.969 0.9375 27.2294L22.7708 49.0565C24.0292 50.3149 26.0667 50.3149 27.325 49.0565L49.0542 27.3274C50.3146 26.0711 50.3146 24.0315 49.0542 22.7711" fill="#F05032"/>
</g>
<defs>
<clipPath id="clip0_3:4">
<rect width="50" height="50" fill="white"/>
</clipPath>
</defs>
</svg>
