<svg width="50" height="50" viewBox="0 0 50 50" fill="none" xmlns="http://www.w3.org/2000/svg">
<path d="M25 0.618744C11.1875 0.618744 0 11.8125 0 25.6187C0 36.6667 7.1625 46.0354 17.0937 49.3375C18.3437 49.5729 18.8021 48.8 18.8021 48.1354C18.8021 47.5417 18.7812 45.9687 18.7708 43.8854C11.8167 45.3937 10.35 40.5312 10.35 40.5312C9.2125 37.6458 7.56875 36.875 7.56875 36.875C5.30417 35.325 7.74375 35.3562 7.74375 35.3562C10.2542 35.5312 11.5729 37.9312 11.5729 37.9312C13.8021 41.7542 17.425 40.65 18.8542 40.0104C19.0792 38.3937 19.7229 37.2917 20.4375 36.6667C14.8854 36.0417 9.05 33.8917 9.05 24.3125C9.05 21.5833 10.0187 19.3542 11.6229 17.6042C11.3417 16.9729 10.4979 14.4312 11.8417 10.9875C11.8417 10.9875 13.9354 10.3167 18.7167 13.55C20.7167 12.9937 22.8417 12.7187 24.9667 12.7062C27.0917 12.7187 29.2167 12.9937 31.2167 13.55C35.9667 10.3167 38.0604 10.9875 38.0604 10.9875C39.4042 14.4312 38.5604 16.9729 38.3104 17.6042C39.9042 19.3542 40.8729 21.5833 40.8729 24.3125C40.8729 33.9167 35.0292 36.0312 29.4667 36.6458C30.3417 37.3958 31.1542 38.9292 31.1542 41.2708C31.1542 44.6167 31.1229 47.3042 31.1229 48.1167C31.1229 48.7729 31.5604 49.5542 32.8417 49.3042C42.8437 46.025 50 36.65 50 25.6187C50 11.8125 38.8062 0.618744 25 0.618744" fill="#181717"/>
</svg>
