<svg width="50" height="50" viewBox="0 0 50 50" fill="none" xmlns="http://www.w3.org/2000/svg">
<path d="M16.4167 25.0833C16.4167 25.7083 16.3403 26.3125 16.1875 26.8958C16.0486 27.4653 15.8194 27.9792 15.5 28.4375C15.1944 28.8958 14.7917 29.2569 14.2917 29.5208C13.7778 29.7986 13.1736 29.9375 12.4792 29.9375C11.7847 29.9375 11.1944 29.7986 10.7083 29.5208C10.2222 29.2292 9.82639 28.8472 9.52083 28.375C9.21528 27.9167 8.98611 27.3958 8.83333 26.8125C8.69444 26.2292 8.625 25.6319 8.625 25.0208C8.625 24.4097 8.69444 23.8056 8.83333 23.2083C8.97222 22.6111 9.20833 22.0833 9.54167 21.625C9.84722 21.1528 10.2569 20.7778 10.7708 20.5C11.2708 20.2222 11.875 20.0833 12.5833 20.0833C13.2917 20.0833 13.8889 20.2222 14.375 20.5C14.8611 20.7917 15.2569 21.1736 15.5625 21.6458C15.8681 22.1181 16.0833 22.6528 16.2083 23.25C16.3472 23.8472 16.4167 24.4583 16.4167 25.0833V25.0833ZM50 25V44.5417C50 45.1806 49.7708 45.7361 49.3125 46.2083C48.8542 46.6528 48.2986 46.875 47.6458 46.875H14.8542C14.2153 46.875 13.6597 46.6458 13.1875 46.1875C12.7431 45.7292 12.5208 45.1736 12.5208 44.5208V37.5H2.08333C1.51389 37.5 1.02778 37.2917 0.625 36.875C0.208333 36.4722 0 35.9861 0 35.4167V14.5833C0 14.0139 0.208333 13.5278 0.625 13.125C1.01389 12.7083 1.5 12.5 2.08333 12.5H15.625V5.3125C15.625 4.70139 15.8333 4.18056 16.25 3.75C16.6667 3.33333 17.1875 3.125 17.8125 3.125H44.6875C45.2986 3.125 45.8194 3.33333 46.25 3.75C46.6667 4.16667 46.875 4.6875 46.875 5.3125V22.6042L49.4583 24.1042H49.4792C49.6181 24.2014 49.7431 24.3264 49.8542 24.4792C49.9514 24.6458 50 24.8194 50 25V25ZM37.5 7.8125V14.0625H43.75V7.8125H37.5ZM37.5 17.1875V23.4375H43.75V17.1875H37.5ZM37.5 26.5625V30.375L43.8542 26.5625H37.5ZM26.5625 7.8125V14.0625H34.375V7.8125H26.5625ZM26.5625 17.1875V23.4375H34.375V17.1875H26.5625ZM26.5625 26.5625V30.7917L31.5833 33.9167L34.375 32.25V26.5625H26.5625ZM18.75 7.8125V12.5H22.9167L23.1875 12.5208L23.4375 12.6042V7.8125H18.75ZM12.4583 33.2917C13.7083 33.2917 14.8194 33.0833 15.7917 32.6667C16.7639 32.2222 17.5903 31.625 18.2708 30.875C18.9375 30.1111 19.4444 29.2222 19.7917 28.2083C20.1389 27.1806 20.3125 26.0625 20.3125 24.8542C20.3125 23.7014 20.1389 22.625 19.7917 21.625C19.4583 20.6389 18.9653 19.7778 18.3125 19.0417C17.6597 18.3056 16.8611 17.7292 15.9167 17.3125C14.9722 16.8958 13.8958 16.6875 12.6875 16.6875C11.4097 16.6875 10.2708 16.8958 9.27083 17.3125C8.28472 17.7292 7.45139 18.3194 6.77083 19.0833C6.07639 19.8333 5.55556 20.7361 5.20833 21.7917C4.86111 22.8194 4.6875 23.9514 4.6875 25.1875C4.6875 26.3681 4.86806 27.4514 5.22917 28.4375C5.59028 29.4375 6.10417 30.2917 6.77083 31C7.4375 31.7222 8.25 32.2847 9.20833 32.6875C10.1667 33.1042 11.25 33.3125 12.4583 33.3125V33.2917ZM15.625 43.75H41.4375L25 33.5V35.4167C25 35.9861 24.7917 36.4722 24.375 36.875C23.9722 37.2917 23.4861 37.5 22.9167 37.5H15.625V43.75ZM46.875 43.4792V28.3958L34.5833 35.7708L46.875 43.4792Z" fill="#0078D4"/>
</svg>
