<svg width="50" height="50" viewBox="0 0 50 50" fill="none" xmlns="http://www.w3.org/2000/svg">
<path d="M24.1092 0C23.7419 0 23.4638 0.00270833 23.3625 0.0139583C23.255 0.025 22.9127 0.0577083 22.605 0.0822917C15.5033 0.7225 8.85146 4.55375 4.63834 10.4423C2.2923 13.7167 0.79188 17.4304 0.225214 21.3646C0.024797 22.7375 0.000213623 23.1431 0.000213623 25.005C0.000213623 26.8669 0.0252136 27.2725 0.225214 28.6458C1.58355 38.0333 8.26501 45.9206 17.3267 48.8427C18.9494 49.3658 20.66 49.7225 22.6052 49.9375C23.3627 50.0208 26.6373 50.0208 27.3948 49.9375C30.7525 49.566 33.5973 48.7354 36.4025 47.3035C36.8327 47.0835 36.9158 47.025 36.8573 46.9758C36.8181 46.9469 34.985 44.4887 32.7858 41.5175L28.7879 36.1175L23.7781 28.7044C21.0217 24.6285 18.7538 21.296 18.7342 21.296C18.7146 21.2906 18.6952 24.585 18.6852 28.6065C18.6713 35.6485 18.6658 35.9319 18.5777 36.0981C18.4506 36.3377 18.3527 36.4352 18.1477 36.5427C17.9915 36.6206 17.8544 36.6354 17.1165 36.6354H16.2706L16.046 36.4937C15.9068 36.4065 15.7936 36.2833 15.7185 36.1371L15.6158 35.9171L15.6269 26.1192L15.6408 16.3162L15.7921 16.1256C15.8704 16.0229 16.0367 15.8912 16.1538 15.8277C16.3542 15.7298 16.4325 15.72 17.2779 15.72C18.2752 15.72 18.4413 15.759 18.7002 16.0423C18.7738 16.1208 21.4863 20.2062 24.7315 25.1273C28.0173 30.1082 31.305 35.0878 34.5948 40.066L38.5535 46.0623L38.7536 45.9304C40.5281 44.7771 42.4046 43.135 43.8904 41.4248C47.0527 37.7937 49.0911 33.3665 49.7752 28.6456C49.9754 27.2725 49.9998 26.8665 49.9998 25.005C49.9998 23.1431 49.9748 22.7375 49.7752 21.3642C48.4165 11.9767 41.7352 4.08937 32.6738 1.16729C31.0754 0.649167 29.3746 0.292292 27.4685 0.0772917C27.1165 0.040625 25.2113 0.00104167 24.1096 0.000208333L24.1092 0ZM32.5852 15.0354C33.3088 15.0354 33.4356 15.0465 33.5971 15.1333C33.8319 15.2504 34.0221 15.4754 34.0908 15.7098C34.1296 15.8369 34.1396 18.5542 34.1296 24.6773L34.1156 33.4637L32.5665 31.0887L31.0121 28.7137V22.3263C31.0121 18.1971 31.0315 15.8756 31.0608 15.7633C31.139 15.4898 31.31 15.2746 31.5448 15.1477C31.745 15.0448 31.8183 15.0352 32.5858 15.0352L32.5852 15.0354Z" fill="black"/>
</svg>
