<svg width="50" height="50" viewBox="0 0 50 50" fill="none" xmlns="http://www.w3.org/2000/svg">
<path d="M48.2299 5.28786L37.9382 0.309844C37.3566 0.0282871 36.7023 -0.0645106 36.0659 0.0443018C35.4295 0.153114 34.8424 0.458152 34.3861 0.917174L14.6778 18.9905L6.09447 12.4397C5.70722 12.1444 5.22939 11.9947 4.74384 12.0165C4.25829 12.0383 3.79565 12.2303 3.43613 12.5591L0.681966 15.0763C0.467342 15.2725 0.295823 15.5115 0.17839 15.7781C0.0609563 16.0447 0.000196588 16.333 4.76258e-07 16.6246C-0.000195636 16.9161 0.0601762 17.2045 0.177251 17.4713C0.294325 17.7381 0.465523 17.9773 0.679883 18.1737L8.12363 25.001L0.679883 31.8282C0.465523 32.0246 0.294325 32.2638 0.177251 32.5306C0.0601762 32.7974 -0.000195636 33.0858 4.76258e-07 33.3773C0.000196588 33.6689 0.0609563 33.9572 0.17839 34.2238C0.295823 34.4904 0.467342 34.7294 0.681966 34.9256L3.43822 37.4407C3.79773 37.7695 4.26038 37.9615 4.74593 37.9833C5.23148 38.0051 5.70931 37.8554 6.09655 37.5601L14.6799 31.0093L34.3882 49.0826C34.844 49.5417 35.4307 49.8469 36.0668 49.9557C36.7029 50.0645 37.357 49.9717 37.9382 49.69L48.2341 44.712C48.7638 44.455 49.2105 44.0529 49.5231 43.552C49.8356 43.0511 50.0012 42.4718 50.0007 41.8805V8.11927C50.0008 7.52758 49.8346 6.94789 49.5213 6.44697C49.208 5.94605 48.7604 5.54426 48.2299 5.28786ZM37.5091 36.4104L22.5549 25.001L37.5091 13.5915V36.4104V36.4104Z" fill="#007ACC"/>
</svg>
